Coordinates
version=1
nRows=4
nColumns=63
inDegrees=yes

Units are S.I. units (second, meters, Newtons, ...)
If the header above contains a line with 'inDegrees', this indicates whether rotational values are in degrees (yes) or radians (no).

endheader
time	pelvis_tilt	pelvis_list	pelvis_rotation	pelvis_tx	pelvis_ty	pelvis_tz	hip_flexion_r	hip_adduction_r	hip_rotation_r	knee_angle_r	knee_angle_r_beta	ankle_angle_r	subtalar_angle_r	mtp_angle_r	hip_flexion_l	hip_adduction_l	hip_rotation_l	knee_angle_l	knee_angle_l_beta	ankle_angle_l	subtalar_angle_l	mtp_angle_l	L5_S1_Flex_Ext	L5_S1_Lat_Bending	L5_S1_axial_rotation	L4_L5_Flex_Ext	L4_L5_Lat_Bending	L4_L5_axial_rotation	L3_L4_Flex_Ext	L3_L4_Lat_Bending	L3_L4_axial_rotation	L2_L3_Flex_Ext	L2_L3_Lat_Bending	L2_L3_axial_rotation	L1_L2_Flex_Ext	L1_L2_Lat_Bending	L1_L2_axial_rotation	L1_T12_Flex_Ext	L1_T12_Lat_Bending	L1_T12_axial_rotation	Abs_r3	Abs_r2	Abs_r1	Abs_t1	Abs_t2	neck_flexion	neck_bending	neck_rotation	arm_flex_r	arm_add_r	arm_rot_r	elbow_flex_r	pro_sup_r	wrist_flex_r	wrist_dev_r	arm_flex_l	arm_add_l	arm_rot_l	elbow_flex_l	pro_sup_l	wrist_flex_l	wrist_dev_l
    180.88000000	     66.22111409	    -22.62798354	   -573.72296043	      6.70279518	      1.04253740	      2.77694495	     30.03164653	    -10.71057974	     22.36290588	     23.47992277	      0.40980196	      2.19982290	     -3.29897998	    -28.84606903	     15.82656339	      8.17148736	    -41.77591123	     12.73095398	      0.22219706	     12.27722954	     -6.46417560	     25.10336360	     41.26836826	    -13.76050454	    -14.97425969	     76.63948670	    -18.30147103	    -15.91015092	     67.79980222	    -33.45729073	    -15.91015092	     47.16561809	    -33.45729073	    -13.10247723	     38.32180677	    -28.06042085	    -12.16658600	     23.58074562	    -21.31502153	    -11.23069477	    294.77582766	   -155.66157941	    -83.28234014	      0.00000000	      0.00000000	     25.20265571	      8.27072053	    -10.78292598	   -225.52799234	   -187.75986556	    150.83529978	     85.47476586	    112.46880006	     40.47707243	     30.92190204	    157.95714952	   -168.06673027	    191.53532878	    110.58854921	    114.54970152	     25.88260758	     32.82225029
    180.96000000	     65.19341444	    -23.08011166	   -575.54666489	      6.74783096	      1.04419819	      2.79670187	     30.16542233	    -11.21615794	     21.58129205	     23.94273455	      0.41787955	      3.11852025	     -3.51697423	    -28.55000718	     16.09205890	      8.42040146	    -43.25393053	     13.08833805	      0.22843459	     12.42981497	     -3.01017104	     24.40870626	     41.67192015	    -13.38990134	    -14.97359327	     77.38892291	    -17.80856878	    -15.90944285	     68.46279761	    -32.55620612	    -15.90944285	     47.62683754	    -32.55620612	    -13.10189412	     38.69654505	    -27.30468681	    -12.16604454	     23.81133517	    -20.74095718	    -11.23019496	    297.65835844	   -151.46924195	    -83.27863372	      0.00000000	      0.00000000	     25.19368342	      7.37855975	    -10.98023321	   -226.06823995	   -184.58754524	    152.56285955	     86.40251622	    108.63498481	     31.18126256	     30.83452453	    159.05825919	   -165.45083724	    191.33516147	    110.73456440	    110.10938912	     17.11798317	     32.51325218
    181.04000000	     64.26686155	    -23.40743264	   -576.98686483	      6.80054757	      1.04642943	      2.81796168	     30.71017400	    -11.47874512	     20.50331449	     25.10155120	      0.43810472	      4.16806469	     -3.04293859	    -28.18109027	     16.50274683	      8.42474460	    -43.35648975	     13.86680753	      0.24202145	     12.41707199	     -1.88515257	     23.72238632	     42.11031528	    -12.96703036	    -14.97217803	     78.20306651	    -17.24615038	    -15.90793915	     69.18303698	    -31.52803762	    -15.90793915	     48.12787934	    -31.52803762	    -13.10065577	     39.10363877	    -26.44236831	    -12.16489465	     24.06183415	    -20.08593003	    -11.22913352	    300.78977104	   -146.68564084	    -83.27076253	      0.00000000	      0.00000000	     25.17597110	      6.87149990	    -10.98154472	   -226.81112345	   -181.02530864	    154.66430448	     87.24054782	    103.86424229	     25.91205810	     30.62313857	    160.08062887	   -162.98234027	    190.19310197	    110.60878915	    103.92394877	      8.93153342	     31.93728497
    181.12000000	     63.39438375	    -23.71875725	   -578.22966774	      6.84573110	      1.05171095	      2.83834681	     30.71185747	    -12.07170261	     19.68968840	     25.56179408	      0.44613747	      5.28861712	     -3.10367173	    -27.21485815	     16.85937908	      8.62499309	    -44.81230047	     14.13846860	      0.24676283	     12.52681233	      1.53725265	     23.93595340	     42.55792160	    -12.52901268	    -14.97135705	     79.03431621	    -16.66358686	    -15.90706687	     69.91840940	    -30.46304142	    -15.90706687	     48.63944860	    -30.46304142	    -13.09993742	     39.51928600	    -25.54916265	    -12.16422761	     24.31759640	    -19.40744064	    -11.22851779	    303.98697821	   -141.73069720	    -83.26619653	      0.00000000	      0.00000000	     25.22156743	      6.14603842	    -11.13133405	   -226.96154299	   -177.61627921	    156.47923122	     87.52095158	     98.22996249	     16.88067580	     29.79767708	    160.94985573	   -160.58717882	    189.61625085	    110.32060884	     97.04112852	      1.51651679	     30.68604202
